<?xml version="1.0" encoding="UTF-8"?>
<!DOCTYPE svg PUBLIC "-//W3C//DTD SVG 1.1//EN" "http://www.w3.org/Graphics/SVG/1.1/DTD/svg11.dtd">
<!-- Creator: CorelDRAW -->
<svg xmlns="http://www.w3.org/2000/svg" xml:space="preserve" width="2048px" height="2048px" style="shape-rendering:geometricPrecision; text-rendering:geometricPrecision; image-rendering:optimizeQuality; fill-rule:evenodd; clip-rule:evenodd"
viewBox="0 0 2048 2048"
 xmlns:xlink="http://www.w3.org/1999/xlink">
 <defs>
  <style type="text/css">
   <![CDATA[
    .fil1 {fill:none}
    .fil0 {fill:#FF9800}
    .fil3 {fill:#FFFFFE}
    .fil2 {fill:#FFFFFE;fill-rule:nonzero}
   ]]>
  </style>
 </defs>
 <g id="Layer_x0020_1">
  <metadata id="CorelCorpID_0Corel-Layer"/>
  <rect class="fil0" width="2048" height="2048" rx="256.001" ry="256.001"/>
  <rect class="fil1" x="256" y="256" width="1536" height="1536"/>
  <path class="fil2" d="M1024 848.574c48.3804,0 92.1827,19.611 123.889,51.3178 31.7067,31.7044 51.3178,75.5079 51.3178,123.888 0,48.3804 -19.611,92.1827 -51.3178,123.889 -31.7067,31.7067 -75.5091,51.3178 -123.889,51.3178 -48.3804,0 -92.1827,-19.611 -123.889,-51.3178 -31.7044,-31.7067 -51.3166,-75.5091 -51.3166,-123.889 0,-48.3804 19.6122,-92.1827 51.3166,-123.889 31.7067,-31.7044 75.5091,-51.3166 123.889,-51.3166z"/>
  <path class="fil3" d="M1122.33 378.642c140.342,21.3555 266.452,87.9686 362.755,184.272 96.3024,96.3036 162.911,222.409 184.257,362.742l90.9497 0c17.4732,0 33.3697,7.1256 44.9209,18.6473 11.602,11.5713 18.7914,27.476 18.7914,44.9811l0 69.3544c0,17.491 -7.19292,33.4229 -18.7996,45.0201 -11.537,11.5299 -27.4288,18.6697 -44.9126,18.6697l-90.9497 0c-21.3449,140.343 -87.9532,266.452 -184.254,362.755 -96.3036,96.3036 -222.414,162.913 -362.757,184.262l0 90.9497c0,17.4862 -7.14095,33.3768 -18.6685,44.9091 -11.5996,11.6067 -27.5303,18.7984 -45.0213,18.7984l-69.2764 0c-17.5713,0 -33.5032,-7.14449 -45.0343,-18.6756 -11.5299,-11.5299 -18.6768,-27.4607 -18.6768,-45.0319l0 -90.9497c-140.335,-21.3484 -266.438,-87.9556 -362.74,-184.26 -96.3036,-96.3036 -162.914,-222.412 -184.269,-362.756l-90.9355 0c-17.4862,0 -33.3768,-7.14095 -44.9091,-18.6685 -11.6067,-11.5996 -18.7984,-27.5303 -18.7984,-45.0213l0 -69.2764c0,-17.5701 7.14449,-33.4996 18.6744,-45.0319 11.5323,-11.5299 27.4618,-18.6744 45.0331,-18.6744l90.9355 0c21.3555,-140.334 87.9674,-266.44 184.27,-362.743 96.3013,-96.3024 222.406,-162.915 362.739,-184.271l0 -90.9308c0,-17.4721 7.12796,-33.3685 18.6484,-44.9209 11.5724,-11.602 27.4807,-18.7914 44.9847,-18.7914l69.3544 0c17.491,0 33.4229,7.19292 45.0201,18.7996 11.5299,11.537 18.6697,27.4288 18.6697,44.9126l0 90.9308zm-472.454 679.685l0 -68.6693 -102.46 0 -36.6614 0 5.03622 -36.3756c15.678,-113.241 68.4615,-214.805 145.573,-291.918 77.1131,-77.1119 178.676,-129.894 291.914,-145.57l36.3756 -5.03504 0 36.6603 0 102.455 68.6741 0 0 -102.455 0 -36.6626 36.3756 5.03741c113.206,15.678 214.761,68.465 291.87,145.585 77.0989,77.1119 129.881,178.669 145.556,291.903l5.03504 36.3756 -36.6603 0 -102.454 0 0 68.6693 102.454 0 36.6626 0 -5.03741 36.3756c-15.6756,113.193 -68.4579,214.739 -145.56,291.855 -77.1036,77.1201 -178.657,129.931 -291.865,145.654l-36.3756 5.05158 0 -36.6768 0 -102.46 -68.6741 0 0 102.46 0 36.6744 -36.3756 -5.04922c-113.241,-15.7205 -214.8,-68.5264 -291.91,-145.639 -77.1131,-77.1178 -129.898,-178.669 -145.578,-291.87l-5.03859 -36.3756 36.6638 0 102.46 0z"/>
 </g>
</svg>
