<?xml version="1.0" encoding="UTF-8"?>
<!DOCTYPE svg PUBLIC "-//W3C//DTD SVG 1.1//EN" "http://www.w3.org/Graphics/SVG/1.1/DTD/svg11.dtd">
<!-- Creator: CorelDRAW X5 -->
<svg xmlns="http://www.w3.org/2000/svg" xml:space="preserve" width="2048px" height="2048px" style="shape-rendering:geometricPrecision; text-rendering:geometricPrecision; image-rendering:optimizeQuality; fill-rule:evenodd; clip-rule:evenodd"
viewBox="0 0 2048 2048"
 xmlns:xlink="http://www.w3.org/1999/xlink">
 <defs>
  <style type="text/css">
   <![CDATA[
    .fil6 {fill:none}
    .fil3 {fill:#263238}
    .fil4 {fill:#37474F}
    .fil0 {fill:#546E7A}
    .fil5 {fill:#7CB342}
    .fil1 {fill:#BBDEFB}
    .fil2 {fill:#FF6F00}
   ]]>
  </style>
 </defs>
 <g id="Layer_x0020_1">
  <metadata id="CorelCorpID_0Corel-Layer"/>
  <polygon class="fil0" points="288,256 1760,256 1792,256 1792,288 1792,1760 1792,1792 1760,1792 288,1792 256,1792 256,1760 256,288 256,256 "/>
  <polygon class="fil1" points="320,320 320,1728 1728,1728 1728,320 "/>
  <path class="fil2" d="M747 515c49,0 93,20 125,52 32,32 52,76 52,125 0,49 -20,93 -52,125 -32,32 -76,52 -125,52 -49,0 -93,-20 -125,-52 -32,-32 -52,-76 -52,-125 0,-49 20,-93 52,-125 32,-32 76,-52 125,-52z"/>
  <polygon class="fil3" points="1043,981 1261,1586 1271,1615 1236,1615 978,1615 680,1615 640,1615 639,1615 1024,928 1024,929 "/>
  <polygon class="fil4" points="1401,709 1713,1574 1728,1615 1678,1615 1308,1615 883,1615 824,1615 824,1615 1374,632 1374,633 "/>
  <path class="fil5" d="M320 1650l0 78 1408 0 0 -114c-143,-66 -390,-109 -672,-109 -330,0 -613,60 -736,145z"/>
  <rect class="fil6" width="2048" height="2048"/>
 </g>
</svg>
