<?xml version="1.0" encoding="UTF-8"?>
<!DOCTYPE svg PUBLIC "-//W3C//DTD SVG 1.1//EN" "http://www.w3.org/Graphics/SVG/1.1/DTD/svg11.dtd">
<!-- Creator: CorelDRAW -->
<svg xmlns="http://www.w3.org/2000/svg" xml:space="preserve" width="6.82666in" height="6.82666in" style="shape-rendering:geometricPrecision; text-rendering:geometricPrecision; image-rendering:optimizeQuality; fill-rule:evenodd; clip-rule:evenodd"
viewBox="0 0 6.82666 6.82666"
 xmlns:xlink="http://www.w3.org/1999/xlink">
 <defs>
  <style type="text/css">
   <![CDATA[
    .fil0 {fill:none}
    .fil3 {fill:#FF9100}
    .fil2 {fill:#FF9100;fill-rule:nonzero}
    .fil1 {fill:#FFAB40;fill-rule:nonzero}
   ]]>
  </style>
 </defs>
 <g id="Layer_x0020_1">
  <metadata id="CorelCorpID_0Corel-Layer"/>
  <g id="_488776888">
   <rect id="_488776552" class="fil0" width="6.82666" height="6.82666"/>
   <rect id="_488776984" class="fil0" x="0.853331" y="0.853331" width="5.12" height="5.12"/>
  </g>
  <path class="fil1" d="M1.91039 1.74962l0.00108661 0 2.95919 0c0.0628819,0 0.113858,0.0509764 0.113858,0.113858 0,0.00489764 -0.000311024,0.00972835 -0.000909449,0.0144646l-0.26865 3.97807 -0.113413 -0.00755906 0.113598 0.00767323c-0.00406693,0.0601654 -0.0541693,0.106236 -0.113598,0.106181l0 3.93701e-006 -2.42205 0c-0.0624803,0 -0.113197,-0.0503386 -0.113843,-0.112669l-0.268673 -3.9785 -0.000192913 1.1811e-005c-0.00423622,-0.0627362 0.043185,-0.117035 0.105925,-0.121272 0.0025748,-0.000173228 0.00512992,-0.000251969 0.00767323,-0.000255906l0 -3.93701e-006z"/>
  <path class="fil2" d="M1.76652 1.35263c-0.0626339,0.00318898 -0.110819,0.0565591 -0.10763,0.119197 0.00318898,0.0626378 0.0565591,0.110823 0.119197,0.10763l3.28205 -0.176846c0.0626378,-0.00318898 0.110823,-0.0565591 0.107634,-0.119197 -0.00319291,-0.0626378 -0.056563,-0.110823 -0.119197,-0.10763l-3.28206 0.176846z"/>
  <polygon class="fil2" points="2.9654,1.29998 2.95066,1.02648 2.94457,0.913409 3.0583,0.90728 3.74205,0.870437 3.85511,0.864346 3.86125,0.978067 3.87598,1.25157 3.64916,1.26314 3.64055,1.10336 3.18358,1.12798 3.19223,1.28841 "/>
  <path class="fil3" d="M4.18752 2.31891c0,-0.0628819 -0.0509803,-0.113862 -0.113858,-0.113862 -0.0628819,0 -0.113862,0.0509803 -0.113862,0.113862l0 3.07412c0,0.0628819 0.0509803,0.113858 0.113862,0.113858 0.062878,0 0.113858,-0.0509764 0.113858,-0.113858l0 -3.07412z"/>
  <path class="fil3" d="M3.50439 2.31891c0,-0.0628819 -0.0509803,-0.113862 -0.113862,-0.113862 -0.062878,0 -0.113858,0.0509803 -0.113858,0.113862l0 3.07412c0,0.0628819 0.0509803,0.113858 0.113858,0.113858 0.0628819,0 0.113862,-0.0509764 0.113862,-0.113858l0 -3.07412z"/>
  <path class="fil3" d="M2.82124 2.31891c0,-0.0628819 -0.0509764,-0.113862 -0.113858,-0.113862 -0.062878,0 -0.113858,0.0509803 -0.113858,0.113862l0 3.07412c0,0.0628819 0.0509803,0.113858 0.113858,0.113858 0.0628819,0 0.113858,-0.0509764 0.113858,-0.113858l0 -3.07412z"/>
 </g>
</svg>
